<mxfile host="app.diagrams.net" modified="2024-01-20T08:36:32.892Z" agent="Mozilla/5.0 (Windows NT 10.0; Win64; x64; rv:121.0) Gecko/20100101 Firefox/121.0" etag="oKl_fpI_BzXfuBS0OOvw" version="22.1.21" type="device">
  <diagram name="Pagina-1" id="DFnuoVSz2CiymGhZ_Wcl">
    <mxGraphModel dx="2231" dy="1169" grid="1" gridSize="10" guides="1" tooltips="1" connect="1" arrows="1" fold="1" page="1" pageScale="1" pageWidth="1654" pageHeight="1169" math="0" shadow="0">
      <root>
        <mxCell id="0" />
        <mxCell id="1" parent="0" />
        <mxCell id="J1D2jrO73_rEtRiQWg3C-1" value="&lt;font style=&quot;font-size: 19px;&quot;&gt;&lt;b style=&quot;font-size: 19px;&quot;&gt;beehAIve&lt;/b&gt;&lt;/font&gt;" style="rounded=1;whiteSpace=wrap;html=1;fillColor=#ffb800;strokeColor=#d6b656;fontSize=19;" vertex="1" parent="1">
          <mxGeometry x="800" y="130" width="190" height="40" as="geometry" />
        </mxCell>
        <mxCell id="J1D2jrO73_rEtRiQWg3C-2" value="&lt;span&gt;Teconologico&lt;/span&gt;" style="rounded=1;whiteSpace=wrap;html=1;fillColor=#fff0b3;strokeColor=#d6b656;fontStyle=0" vertex="1" parent="1">
          <mxGeometry x="150" y="230" width="100" height="40" as="geometry" />
        </mxCell>
        <mxCell id="J1D2jrO73_rEtRiQWg3C-4" value="Organizzativo" style="rounded=1;whiteSpace=wrap;html=1;fillColor=#fff0b3;strokeColor=#d6b656;fontStyle=0" vertex="1" parent="1">
          <mxGeometry x="600" y="230" width="100" height="40" as="geometry" />
        </mxCell>
        <mxCell id="J1D2jrO73_rEtRiQWg3C-5" value="Legale" style="rounded=1;whiteSpace=wrap;html=1;fillColor=#fff0b3;strokeColor=#d6b656;fontStyle=0" vertex="1" parent="1">
          <mxGeometry x="1490" y="230" width="100" height="40" as="geometry" />
        </mxCell>
        <mxCell id="J1D2jrO73_rEtRiQWg3C-6" value="Umano" style="rounded=1;whiteSpace=wrap;html=1;fillColor=#fff0b3;strokeColor=#d6b656;fontStyle=0" vertex="1" parent="1">
          <mxGeometry x="1050" y="230" width="100" height="40" as="geometry" />
        </mxCell>
        <mxCell id="J1D2jrO73_rEtRiQWg3C-7" style="rounded=0;orthogonalLoop=1;jettySize=auto;html=1;entryX=0.5;entryY=0;entryDx=0;entryDy=0;edgeStyle=orthogonalEdgeStyle;endArrow=none;endFill=0;strokeColor=#966D00;exitX=0.5;exitY=1;exitDx=0;exitDy=0;" edge="1" parent="1" source="J1D2jrO73_rEtRiQWg3C-1" target="J1D2jrO73_rEtRiQWg3C-4">
          <mxGeometry relative="1" as="geometry" />
        </mxCell>
        <mxCell id="J1D2jrO73_rEtRiQWg3C-8" style="rounded=0;orthogonalLoop=1;jettySize=auto;html=1;entryX=0.5;entryY=0;entryDx=0;entryDy=0;edgeStyle=orthogonalEdgeStyle;endArrow=none;endFill=0;strokeColor=#966D00;exitX=0.5;exitY=1;exitDx=0;exitDy=0;" edge="1" parent="1" source="J1D2jrO73_rEtRiQWg3C-1" target="J1D2jrO73_rEtRiQWg3C-2">
          <mxGeometry relative="1" as="geometry">
            <mxPoint x="755" y="180" as="sourcePoint" />
            <mxPoint x="680" y="240" as="targetPoint" />
          </mxGeometry>
        </mxCell>
        <mxCell id="J1D2jrO73_rEtRiQWg3C-9" style="rounded=0;orthogonalLoop=1;jettySize=auto;html=1;entryX=0.5;entryY=0;entryDx=0;entryDy=0;edgeStyle=orthogonalEdgeStyle;endArrow=none;endFill=0;strokeColor=#966D00;exitX=0.5;exitY=1;exitDx=0;exitDy=0;" edge="1" parent="1" source="J1D2jrO73_rEtRiQWg3C-1" target="J1D2jrO73_rEtRiQWg3C-5">
          <mxGeometry relative="1" as="geometry">
            <mxPoint x="765" y="190" as="sourcePoint" />
            <mxPoint x="690" y="250" as="targetPoint" />
          </mxGeometry>
        </mxCell>
        <mxCell id="J1D2jrO73_rEtRiQWg3C-10" style="rounded=0;orthogonalLoop=1;jettySize=auto;html=1;entryX=0.5;entryY=0;entryDx=0;entryDy=0;edgeStyle=orthogonalEdgeStyle;endArrow=none;endFill=0;strokeColor=#966D00;exitX=0.5;exitY=1;exitDx=0;exitDy=0;" edge="1" parent="1" source="J1D2jrO73_rEtRiQWg3C-1" target="J1D2jrO73_rEtRiQWg3C-6">
          <mxGeometry relative="1" as="geometry">
            <mxPoint x="775" y="200" as="sourcePoint" />
            <mxPoint x="700" y="260" as="targetPoint" />
          </mxGeometry>
        </mxCell>
        <mxCell id="J1D2jrO73_rEtRiQWg3C-11" value="R1: Malfunzionamento dei sensori IoT&lt;br style=&quot;font-size: 11px;&quot;&gt;" style="rounded=1;whiteSpace=wrap;html=1;fillColor=#fff2cc;strokeColor=#FFF2CC;fontStyle=0;fontSize=11;" vertex="1" parent="1">
          <mxGeometry x="220" y="300" width="290" height="40" as="geometry" />
        </mxCell>
        <mxCell id="J1D2jrO73_rEtRiQWg3C-17" style="rounded=0;orthogonalLoop=1;jettySize=auto;html=1;entryX=0;entryY=0.5;entryDx=0;entryDy=0;edgeStyle=orthogonalEdgeStyle;endArrow=none;endFill=0;strokeColor=#966D00;exitX=0.5;exitY=1;exitDx=0;exitDy=0;" edge="1" parent="1" source="J1D2jrO73_rEtRiQWg3C-2" target="J1D2jrO73_rEtRiQWg3C-11">
          <mxGeometry relative="1" as="geometry">
            <mxPoint x="750" y="180" as="sourcePoint" />
            <mxPoint x="210" y="240" as="targetPoint" />
          </mxGeometry>
        </mxCell>
        <mxCell id="J1D2jrO73_rEtRiQWg3C-18" value="R3: Problemi di accuratezza nel modello AI" style="rounded=1;whiteSpace=wrap;html=1;fillColor=#fff2cc;strokeColor=#FFF2CC;fontStyle=0;fontSize=11;" vertex="1" parent="1">
          <mxGeometry x="220" y="360" width="290" height="40" as="geometry" />
        </mxCell>
        <mxCell id="J1D2jrO73_rEtRiQWg3C-19" value="R12: DifficoltÃ  nell&#39;apprendimento delle CNN" style="rounded=1;whiteSpace=wrap;html=1;fillColor=#fff2cc;strokeColor=#FFF2CC;fontStyle=0;fontSize=11;" vertex="1" parent="1">
          <mxGeometry x="220" y="420" width="290" height="40" as="geometry" />
        </mxCell>
        <mxCell id="J1D2jrO73_rEtRiQWg3C-20" value="R6: Problemi di integrazione tra sistemi diversi" style="rounded=1;whiteSpace=wrap;html=1;fillColor=#fff2cc;strokeColor=#FFF2CC;fontStyle=0;fontSize=11;" vertex="1" parent="1">
          <mxGeometry x="220" y="480" width="290" height="40" as="geometry" />
        </mxCell>
        <mxCell id="J1D2jrO73_rEtRiQWg3C-21" value="R9: Perdita di dati critici" style="rounded=1;whiteSpace=wrap;html=1;fillColor=#fff2cc;strokeColor=#FFF2CC;fontStyle=0;fontSize=11;" vertex="1" parent="1">
          <mxGeometry x="220" y="544.5" width="290" height="40" as="geometry" />
        </mxCell>
        <mxCell id="J1D2jrO73_rEtRiQWg3C-22" value="&lt;font style=&quot;font-size: 11px;&quot;&gt;R13: Mancanza di feature rilevanti nei dataset online&lt;/font&gt;" style="rounded=1;whiteSpace=wrap;html=1;fillColor=#fff2cc;strokeColor=#FFF2CC;fontStyle=0" vertex="1" parent="1">
          <mxGeometry x="220" y="610" width="290" height="40" as="geometry" />
        </mxCell>
        <mxCell id="J1D2jrO73_rEtRiQWg3C-23" style="rounded=0;orthogonalLoop=1;jettySize=auto;html=1;entryX=0;entryY=0.5;entryDx=0;entryDy=0;edgeStyle=orthogonalEdgeStyle;endArrow=none;endFill=0;strokeColor=#966D00;exitX=0.5;exitY=1;exitDx=0;exitDy=0;" edge="1" parent="1" source="J1D2jrO73_rEtRiQWg3C-2" target="J1D2jrO73_rEtRiQWg3C-18">
          <mxGeometry relative="1" as="geometry">
            <mxPoint x="210" y="280" as="sourcePoint" />
            <mxPoint x="230" y="330" as="targetPoint" />
          </mxGeometry>
        </mxCell>
        <mxCell id="J1D2jrO73_rEtRiQWg3C-24" style="rounded=0;orthogonalLoop=1;jettySize=auto;html=1;entryX=0;entryY=0.5;entryDx=0;entryDy=0;edgeStyle=orthogonalEdgeStyle;endArrow=none;endFill=0;strokeColor=#966D00;exitX=0.5;exitY=1;exitDx=0;exitDy=0;" edge="1" parent="1" source="J1D2jrO73_rEtRiQWg3C-2" target="J1D2jrO73_rEtRiQWg3C-19">
          <mxGeometry relative="1" as="geometry">
            <mxPoint x="210" y="280" as="sourcePoint" />
            <mxPoint x="230" y="390" as="targetPoint" />
          </mxGeometry>
        </mxCell>
        <mxCell id="J1D2jrO73_rEtRiQWg3C-25" style="rounded=0;orthogonalLoop=1;jettySize=auto;html=1;entryX=0;entryY=0.5;entryDx=0;entryDy=0;edgeStyle=orthogonalEdgeStyle;endArrow=none;endFill=0;strokeColor=#966D00;exitX=0.5;exitY=1;exitDx=0;exitDy=0;" edge="1" parent="1" source="J1D2jrO73_rEtRiQWg3C-2" target="J1D2jrO73_rEtRiQWg3C-20">
          <mxGeometry relative="1" as="geometry">
            <mxPoint x="220" y="290" as="sourcePoint" />
            <mxPoint x="240" y="400" as="targetPoint" />
          </mxGeometry>
        </mxCell>
        <mxCell id="J1D2jrO73_rEtRiQWg3C-26" style="rounded=0;orthogonalLoop=1;jettySize=auto;html=1;entryX=0;entryY=0.5;entryDx=0;entryDy=0;edgeStyle=orthogonalEdgeStyle;endArrow=none;endFill=0;strokeColor=#966D00;exitX=0.5;exitY=1;exitDx=0;exitDy=0;" edge="1" parent="1" source="J1D2jrO73_rEtRiQWg3C-2" target="J1D2jrO73_rEtRiQWg3C-21">
          <mxGeometry relative="1" as="geometry">
            <mxPoint x="230" y="300" as="sourcePoint" />
            <mxPoint x="250" y="410" as="targetPoint" />
          </mxGeometry>
        </mxCell>
        <mxCell id="J1D2jrO73_rEtRiQWg3C-27" style="rounded=0;orthogonalLoop=1;jettySize=auto;html=1;entryX=0;entryY=0.5;entryDx=0;entryDy=0;edgeStyle=orthogonalEdgeStyle;endArrow=none;endFill=0;strokeColor=#966D00;exitX=0.5;exitY=1;exitDx=0;exitDy=0;" edge="1" parent="1" source="J1D2jrO73_rEtRiQWg3C-2" target="J1D2jrO73_rEtRiQWg3C-22">
          <mxGeometry relative="1" as="geometry">
            <mxPoint x="240" y="310" as="sourcePoint" />
            <mxPoint x="260" y="420" as="targetPoint" />
          </mxGeometry>
        </mxCell>
        <mxCell id="J1D2jrO73_rEtRiQWg3C-28" value="R2: Ritardo nello sviluppo del software" style="rounded=1;whiteSpace=wrap;html=1;fillColor=#fff2cc;strokeColor=#FFF2CC;fontStyle=0;fontSize=11;" vertex="1" parent="1">
          <mxGeometry x="670" y="300" width="290" height="40" as="geometry" />
        </mxCell>
        <mxCell id="J1D2jrO73_rEtRiQWg3C-29" value="R11: Ritardi legati ad altri impegni dei team members" style="rounded=1;whiteSpace=wrap;html=1;fillColor=#fff2cc;strokeColor=#FFF2CC;fontStyle=0;fontSize=11;" vertex="1" parent="1">
          <mxGeometry x="670" y="360" width="290" height="40" as="geometry" />
        </mxCell>
        <mxCell id="J1D2jrO73_rEtRiQWg3C-30" value="R8: Conflitti nel team di sviluppo" style="rounded=1;whiteSpace=wrap;html=1;fillColor=#fff2cc;strokeColor=#FFF2CC;fontStyle=0;fontSize=11;" vertex="1" parent="1">
          <mxGeometry x="670" y="420" width="290" height="40" as="geometry" />
        </mxCell>
        <mxCell id="J1D2jrO73_rEtRiQWg3C-35" style="rounded=0;orthogonalLoop=1;jettySize=auto;html=1;entryX=0;entryY=0.5;entryDx=0;entryDy=0;edgeStyle=orthogonalEdgeStyle;endArrow=none;endFill=0;strokeColor=#966D00;exitX=0.5;exitY=1;exitDx=0;exitDy=0;" edge="1" parent="1" source="J1D2jrO73_rEtRiQWg3C-4" target="J1D2jrO73_rEtRiQWg3C-28">
          <mxGeometry relative="1" as="geometry">
            <mxPoint x="210" y="280" as="sourcePoint" />
            <mxPoint x="230" y="640" as="targetPoint" />
            <Array as="points">
              <mxPoint x="650" y="320" />
            </Array>
          </mxGeometry>
        </mxCell>
        <mxCell id="J1D2jrO73_rEtRiQWg3C-36" style="rounded=0;orthogonalLoop=1;jettySize=auto;html=1;entryX=0;entryY=0.5;entryDx=0;entryDy=0;edgeStyle=orthogonalEdgeStyle;endArrow=none;endFill=0;strokeColor=#966D00;exitX=0.5;exitY=1;exitDx=0;exitDy=0;" edge="1" parent="1" source="J1D2jrO73_rEtRiQWg3C-4" target="J1D2jrO73_rEtRiQWg3C-29">
          <mxGeometry relative="1" as="geometry">
            <mxPoint x="660" y="280" as="sourcePoint" />
            <mxPoint x="680" y="330" as="targetPoint" />
            <Array as="points">
              <mxPoint x="650" y="380" />
            </Array>
          </mxGeometry>
        </mxCell>
        <mxCell id="J1D2jrO73_rEtRiQWg3C-37" style="rounded=0;orthogonalLoop=1;jettySize=auto;html=1;entryX=0;entryY=0.5;entryDx=0;entryDy=0;edgeStyle=orthogonalEdgeStyle;endArrow=none;endFill=0;strokeColor=#966D00;exitX=0.5;exitY=1;exitDx=0;exitDy=0;" edge="1" parent="1" source="J1D2jrO73_rEtRiQWg3C-4" target="J1D2jrO73_rEtRiQWg3C-30">
          <mxGeometry relative="1" as="geometry">
            <mxPoint x="660" y="280" as="sourcePoint" />
            <mxPoint x="680" y="390" as="targetPoint" />
          </mxGeometry>
        </mxCell>
        <mxCell id="J1D2jrO73_rEtRiQWg3C-38" value="R2: Ritardo nello sviluppo del software" style="rounded=1;whiteSpace=wrap;html=1;fillColor=#fff2cc;strokeColor=#FFF2CC;fontStyle=0;fontSize=11;" vertex="1" parent="1">
          <mxGeometry x="1120" y="300" width="290" height="40" as="geometry" />
        </mxCell>
        <mxCell id="J1D2jrO73_rEtRiQWg3C-39" value="R11: Ritardi legati ad altri impegni dei team members" style="rounded=1;whiteSpace=wrap;html=1;fillColor=#fff2cc;strokeColor=#FFF2CC;fontStyle=0;fontSize=11;" vertex="1" parent="1">
          <mxGeometry x="1120" y="360" width="290" height="40" as="geometry" />
        </mxCell>
        <mxCell id="J1D2jrO73_rEtRiQWg3C-40" value="R8: Conflitti nel team di sviluppo" style="rounded=1;whiteSpace=wrap;html=1;fillColor=#fff2cc;strokeColor=#FFF2CC;fontStyle=0;fontSize=11;" vertex="1" parent="1">
          <mxGeometry x="1120" y="420" width="290" height="40" as="geometry" />
        </mxCell>
        <mxCell id="J1D2jrO73_rEtRiQWg3C-41" style="rounded=0;orthogonalLoop=1;jettySize=auto;html=1;entryX=0;entryY=0.5;entryDx=0;entryDy=0;edgeStyle=orthogonalEdgeStyle;endArrow=none;endFill=0;strokeColor=#966D00;exitX=0.5;exitY=1;exitDx=0;exitDy=0;" edge="1" parent="1" source="J1D2jrO73_rEtRiQWg3C-6" target="J1D2jrO73_rEtRiQWg3C-38">
          <mxGeometry relative="1" as="geometry">
            <mxPoint x="630" y="280" as="sourcePoint" />
            <mxPoint x="650" y="450" as="targetPoint" />
            <Array as="points">
              <mxPoint x="1100" y="320" />
            </Array>
          </mxGeometry>
        </mxCell>
        <mxCell id="J1D2jrO73_rEtRiQWg3C-42" style="rounded=0;orthogonalLoop=1;jettySize=auto;html=1;entryX=0;entryY=0.5;entryDx=0;entryDy=0;edgeStyle=orthogonalEdgeStyle;endArrow=none;endFill=0;strokeColor=#966D00;exitX=0.5;exitY=1;exitDx=0;exitDy=0;entryPerimeter=0;" edge="1" parent="1" source="J1D2jrO73_rEtRiQWg3C-6" target="J1D2jrO73_rEtRiQWg3C-39">
          <mxGeometry relative="1" as="geometry">
            <mxPoint x="1110" y="280" as="sourcePoint" />
            <mxPoint x="1130" y="320" as="targetPoint" />
            <Array as="points">
              <mxPoint x="1100" y="380" />
            </Array>
          </mxGeometry>
        </mxCell>
        <mxCell id="J1D2jrO73_rEtRiQWg3C-43" style="rounded=0;orthogonalLoop=1;jettySize=auto;html=1;entryX=0;entryY=0.5;entryDx=0;entryDy=0;edgeStyle=orthogonalEdgeStyle;endArrow=none;endFill=0;strokeColor=#966D00;exitX=0.5;exitY=1;exitDx=0;exitDy=0;" edge="1" parent="1" source="J1D2jrO73_rEtRiQWg3C-6" target="J1D2jrO73_rEtRiQWg3C-40">
          <mxGeometry relative="1" as="geometry">
            <mxPoint x="1080" y="300" as="sourcePoint" />
            <mxPoint x="1130" y="380" as="targetPoint" />
            <Array as="points">
              <mxPoint x="1100" y="440" />
            </Array>
          </mxGeometry>
        </mxCell>
        <mxCell id="J1D2jrO73_rEtRiQWg3C-44" value="R4: Cambiamenti normativi nel trattamento dei dati&lt;br&gt;utenti" style="rounded=1;whiteSpace=wrap;html=1;fillColor=#fff2cc;strokeColor=#FFF2CC;fontStyle=0;fontSize=11;" vertex="1" parent="1">
          <mxGeometry x="1560" y="290" width="290" height="40" as="geometry" />
        </mxCell>
        <mxCell id="J1D2jrO73_rEtRiQWg3C-45" style="rounded=0;orthogonalLoop=1;jettySize=auto;html=1;entryX=0;entryY=0.5;entryDx=0;entryDy=0;edgeStyle=orthogonalEdgeStyle;endArrow=none;endFill=0;strokeColor=#966D00;exitX=0.5;exitY=1;exitDx=0;exitDy=0;" edge="1" parent="1" source="J1D2jrO73_rEtRiQWg3C-5" target="J1D2jrO73_rEtRiQWg3C-44">
          <mxGeometry relative="1" as="geometry">
            <mxPoint x="1030" y="280" as="sourcePoint" />
            <mxPoint x="1050" y="440" as="targetPoint" />
            <Array as="points">
              <mxPoint x="1540" y="310" />
            </Array>
          </mxGeometry>
        </mxCell>
      </root>
    </mxGraphModel>
  </diagram>
</mxfile>
